<svg width="79" height="16" viewBox="0 0 79 16" fill="none" xmlns="http://www.w3.org/2000/svg">
<path d="M6.52 0.599999C7.77333 0.599999 8.7 0.873333 9.3 1.42C9.91333 1.96667 10.22 2.68 10.22 3.56C10.22 4.30667 10.0133 4.88 9.6 5.28C9.18667 5.66667 8.59333 5.86 7.82 5.86C7.58 5.86 7.42667 5.84 7.36 5.8C7.29333 5.74667 7.26 5.64667 7.26 5.5C7.26 5.36667 7.24667 5.19333 7.22 4.98C7.20667 4.76667 7.16 4.56 7.08 4.36C7 4.16 6.87333 3.99333 6.7 3.86C6.52667 3.71333 6.28667 3.64 5.98 3.64C5.55333 3.64 5.17333 3.77333 4.84 4.04C4.50667 4.29333 4.34 4.62667 4.34 5.04C4.34 5.4 4.47333 5.69333 4.74 5.92C5.02 6.14667 5.36667 6.36 5.78 6.56C6.19333 6.74667 6.64 6.94 7.12 7.14C7.61333 7.34 8.06667 7.60667 8.48 7.94C8.89333 8.26 9.23333 8.66667 9.5 9.16C9.78 9.64 9.92 10.2533 9.92 11C9.92 11.5867 9.82 12.14 9.62 12.66C9.43333 13.1667 9.14667 13.6133 8.76 14C8.38667 14.3733 7.90667 14.6667 7.32 14.88C6.74667 15.0933 6.07333 15.2 5.3 15.2C4.63333 15.2 4.01333 15.1267 3.44 14.98C2.88 14.8333 2.38667 14.6533 1.96 14.44C1.54667 14.2133 1.22 13.9733 0.98 13.72C0.74 13.4533 0.62 13.2133 0.62 13C0.62 12.12 0.666667 11.4867 0.76 11.1C0.866667 10.7133 1.05333 10.52 1.32 10.52C1.50667 10.52 1.7 10.6 1.9 10.76C2.11333 10.92 2.35333 11.1 2.62 11.3C2.88667 11.5 3.19333 11.68 3.54 11.84C3.9 12 4.31333 12.08 4.78 12.08C4.96667 12.08 5.14667 12.0667 5.32 12.04C5.50667 12 5.66667 11.94 5.8 11.86C5.94667 11.78 6.06 11.6733 6.14 11.54C6.23333 11.4067 6.28 11.2467 6.28 11.06C6.28 10.7267 6.15333 10.46 5.9 10.26C5.64667 10.06 5.32667 9.88 4.94 9.72C4.55333 9.54667 4.13333 9.37333 3.68 9.2C3.24 9.01333 2.82667 8.76667 2.44 8.46C2.05333 8.14 1.73333 7.73333 1.48 7.24C1.22667 6.74667 1.1 6.11333 1.1 5.34C1.1 4.47333 1.26 3.74 1.58 3.14C1.91333 2.54 2.33333 2.05333 2.84 1.68C3.36 1.29333 3.94 1.02 4.58 0.86C5.23333 0.686666 5.88 0.599999 6.52 0.599999ZM18.1403 0.799999C18.4736 0.799999 18.747 0.866666 18.9603 0.999999C19.187 1.12 19.3736 1.28667 19.5203 1.5C19.667 1.7 19.787 1.93333 19.8803 2.2C19.9736 2.46667 20.0536 2.74 20.1203 3.02C20.6536 5.18 21.0936 6.96 21.4403 8.36C21.787 9.76 22.0603 10.8933 22.2603 11.76C22.4603 12.6133 22.6003 13.2467 22.6803 13.66C22.7603 14.0733 22.8003 14.36 22.8003 14.52C22.8003 14.7067 22.7536 14.8333 22.6603 14.9C22.5803 14.9667 22.447 15 22.2603 15H21.2403C20.667 15 20.207 14.9333 19.8603 14.8C19.527 14.6533 19.267 14.4467 19.0803 14.18C18.907 13.9133 18.7803 13.5933 18.7003 13.22C18.6203 12.8333 18.5536 12.4 18.5003 11.92H15.0203L14.3603 14.68C14.2936 14.8933 14.1403 15 13.9003 15H12.8403C12.627 15 12.407 14.98 12.1803 14.94C11.9536 14.8867 11.747 14.8067 11.5603 14.7C11.387 14.5933 11.2403 14.46 11.1203 14.3C11.0003 14.1267 10.9403 13.92 10.9403 13.68C10.9403 13.3867 11.0336 12.9067 11.2203 12.24C11.407 11.5733 11.6403 10.82 11.9203 9.98C12.2136 9.12667 12.5336 8.24 12.8803 7.32C13.2403 6.38667 13.587 5.50667 13.9203 4.68C14.2536 3.85333 14.5536 3.12667 14.8203 2.5C15.1003 1.87333 15.3136 1.43333 15.4603 1.18C15.567 0.993332 15.6603 0.886666 15.7403 0.86C15.8336 0.819999 16.0003 0.799999 16.2403 0.799999H18.1403ZM15.7403 9.02H18.0403L17.2003 3.74L15.7403 9.02ZM29.7231 0.599999C30.9765 0.599999 31.9031 0.873333 32.5031 1.42C33.1165 1.96667 33.4231 2.68 33.4231 3.56C33.4231 4.30667 33.2165 4.88 32.8031 5.28C32.3898 5.66667 31.7965 5.86 31.0231 5.86C30.7831 5.86 30.6298 5.84 30.5631 5.8C30.4965 5.74667 30.4631 5.64667 30.4631 5.5C30.4631 5.36667 30.4498 5.19333 30.4231 4.98C30.4098 4.76667 30.3631 4.56 30.2831 4.36C30.2031 4.16 30.0765 3.99333 29.9031 3.86C29.7298 3.71333 29.4898 3.64 29.1831 3.64C28.7565 3.64 28.3765 3.77333 28.0431 4.04C27.7098 4.29333 27.5431 4.62667 27.5431 5.04C27.5431 5.4 27.6765 5.69333 27.9431 5.92C28.2231 6.14667 28.5698 6.36 28.9831 6.56C29.3965 6.74667 29.8431 6.94 30.3231 7.14C30.8165 7.34 31.2698 7.60667 31.6831 7.94C32.0965 8.26 32.4365 8.66667 32.7031 9.16C32.9831 9.64 33.1231 10.2533 33.1231 11C33.1231 11.5867 33.0231 12.14 32.8231 12.66C32.6365 13.1667 32.3498 13.6133 31.9631 14C31.5898 14.3733 31.1098 14.6667 30.5231 14.88C29.9498 15.0933 29.2765 15.2 28.5031 15.2C27.8365 15.2 27.2165 15.1267 26.6431 14.98C26.0831 14.8333 25.5898 14.6533 25.1631 14.44C24.7498 14.2133 24.4231 13.9733 24.1831 13.72C23.9431 13.4533 23.8231 13.2133 23.8231 13C23.8231 12.12 23.8698 11.4867 23.9631 11.1C24.0698 10.7133 24.2565 10.52 24.5231 10.52C24.7098 10.52 24.9031 10.6 25.1031 10.76C25.3165 10.92 25.5565 11.1 25.8231 11.3C26.0898 11.5 26.3965 11.68 26.7431 11.84C27.1031 12 27.5165 12.08 27.9831 12.08C28.1698 12.08 28.3498 12.0667 28.5231 12.04C28.7098 12 28.8698 11.94 29.0031 11.86C29.1498 11.78 29.2631 11.6733 29.3431 11.54C29.4365 11.4067 29.4831 11.2467 29.4831 11.06C29.4831 10.7267 29.3565 10.46 29.1031 10.26C28.8498 10.06 28.5298 9.88 28.1431 9.72C27.7565 9.54667 27.3365 9.37333 26.8831 9.2C26.4431 9.01333 26.0298 8.76667 25.6431 8.46C25.2565 8.14 24.9365 7.73333 24.6831 7.24C24.4298 6.74667 24.3031 6.11333 24.3031 5.34C24.3031 4.47333 24.4631 3.74 24.7831 3.14C25.1165 2.54 25.5365 2.05333 26.0431 1.68C26.5631 1.29333 27.1431 1.02 27.7831 0.86C28.4365 0.686666 29.0831 0.599999 29.7231 0.599999ZM37.1234 15C36.3768 15 35.8434 14.8533 35.5234 14.56C35.2034 14.2667 35.0434 13.8467 35.0434 13.3C35.0434 13.0333 35.0634 12.58 35.1034 11.94C35.1434 11.2867 35.1968 10.5467 35.2634 9.72C35.3301 8.89333 35.3968 8.02 35.4634 7.1C35.5301 6.18 35.5968 5.31333 35.6634 4.5C35.7301 3.68667 35.7834 2.97333 35.8234 2.36C35.8634 1.74667 35.8834 1.32667 35.8834 1.1C35.8834 0.899999 35.9901 0.799999 36.2034 0.799999H37.3034C38.1168 0.799999 38.6634 0.973333 38.9434 1.32C39.2234 1.66667 39.3634 2.18 39.3634 2.86C39.3634 2.92667 39.3501 3.14 39.3234 3.5C39.3101 3.86 39.2834 4.31333 39.2434 4.86C39.2034 5.40667 39.1568 6.02 39.1034 6.7C39.0634 7.36667 39.0168 8.05333 38.9634 8.76C38.9234 9.46667 38.8768 10.16 38.8234 10.84C38.7834 11.5067 38.7434 12.1133 38.7034 12.66C38.6634 13.2067 38.6301 13.6667 38.6034 14.04C38.5768 14.4 38.5568 14.62 38.5434 14.7C38.5301 14.8067 38.5034 14.8867 38.4634 14.94C38.4234 14.98 38.3434 15 38.2234 15H37.1234ZM54.0125 4.34C53.9058 4.66 53.7658 5.08 53.5925 5.6C53.4325 6.10667 53.2525 6.66667 53.0525 7.28C52.8525 7.89333 52.6458 8.54667 52.4325 9.24C52.2192 9.92 51.9992 10.5867 51.7725 11.24C51.5592 11.8933 51.3458 12.52 51.1325 13.12C50.9192 13.7067 50.7258 14.22 50.5525 14.66C50.4992 14.7667 50.3858 14.8533 50.2125 14.92C50.0525 14.9733 49.7925 15 49.4325 15C49.2058 15 48.9725 14.9867 48.7325 14.96C48.4925 14.9333 48.2658 14.88 48.0525 14.8C47.8525 14.72 47.6725 14.6133 47.5125 14.48C47.3658 14.3467 47.2525 14.18 47.1725 13.98C46.9725 13.3 46.7792 12.5467 46.5925 11.72C46.4192 10.88 46.2458 10.0267 46.0725 9.16C45.8992 8.29333 45.7258 7.44667 45.5525 6.62C45.3925 5.78 45.2258 5.02 45.0525 4.34C45.0525 4.52667 45.0458 4.84667 45.0325 5.3C45.0192 5.75333 45.0058 6.28 44.9925 6.88C44.9792 7.48 44.9592 8.12667 44.9325 8.82C44.9192 9.51333 44.9058 10.1933 44.8925 10.86C44.8792 11.5133 44.8658 12.1267 44.8525 12.7C44.8392 13.26 44.8325 13.72 44.8325 14.08C44.8325 14.48 44.8058 14.7333 44.7525 14.84C44.7125 14.9467 44.6325 15 44.5125 15H43.4125C42.6525 15 42.1125 14.8533 41.7925 14.56C41.4858 14.2533 41.3325 13.8067 41.3325 13.22C41.3325 13.06 41.3392 12.7933 41.3525 12.42C41.3792 12.0333 41.4125 11.58 41.4525 11.06C41.4925 10.54 41.5325 9.97333 41.5725 9.36C41.6258 8.73333 41.6792 8.1 41.7325 7.46C41.7992 6.59333 41.8525 5.87333 41.8925 5.3C41.9458 4.71333 41.9858 4.22667 42.0125 3.84C42.0392 3.45333 42.0592 3.14 42.0725 2.9C42.0992 2.66 42.1125 2.44667 42.1125 2.26C42.1258 2.07333 42.1325 1.9 42.1325 1.74C42.1458 1.56667 42.1525 1.35333 42.1525 1.1C42.1525 0.993333 42.1925 0.92 42.2725 0.879999C42.3525 0.826666 42.4258 0.799999 42.4925 0.799999H45.2925C45.8125 0.799999 46.2392 0.886666 46.5725 1.06C46.9058 1.22 47.1792 1.47333 47.3925 1.82C47.6058 2.16667 47.7792 2.62 47.9125 3.18C48.0458 3.72667 48.1658 4.38 48.2725 5.14C48.3925 5.9 48.5192 6.78 48.6525 7.78C48.7992 8.76667 48.9858 9.88 49.2125 11.12C49.4258 10.2933 49.6058 9.60667 49.7525 9.06C49.8992 8.51333 50.0192 8.06 50.1125 7.7C50.2192 7.32667 50.3058 7.02 50.3725 6.78C50.4392 6.54 50.4992 6.32 50.5525 6.12C50.6058 5.90667 50.6658 5.68 50.7325 5.44C50.7992 5.2 50.8792 4.9 50.9725 4.54C51.0658 4.18 51.1792 3.73333 51.3125 3.2C51.4592 2.65333 51.6392 1.96667 51.8525 1.14C51.8792 1.06 51.9258 0.986665 51.9925 0.919999C52.0592 0.839999 52.1792 0.799999 52.3525 0.799999H55.4725C55.8992 0.799999 56.2392 0.846666 56.4925 0.94C56.7592 1.02 56.9658 1.14 57.1125 1.3C57.2592 1.46 57.3592 1.66 57.4125 1.9C57.4658 2.12667 57.4925 2.39333 57.4925 2.7C57.4925 3.00667 57.4725 3.50667 57.4325 4.2C57.4058 4.88 57.3592 5.65333 57.2925 6.52C57.2392 7.37333 57.1792 8.26 57.1125 9.18C57.0592 10.1 56.9992 10.9533 56.9325 11.74C56.8792 12.5267 56.8325 13.1933 56.7925 13.74C56.7525 14.2867 56.7258 14.6067 56.7125 14.7C56.6992 14.8067 56.6725 14.8867 56.6325 14.94C56.5925 14.98 56.5125 15 56.3925 15H55.2925C54.5325 15 53.9925 14.8533 53.6725 14.56C53.3658 14.2533 53.2125 13.86 53.2125 13.38C53.2125 13.2333 53.2258 12.9667 53.2525 12.58C53.2925 12.1933 53.3392 11.74 53.3925 11.22C53.4458 10.7 53.5058 10.1333 53.5725 9.52C53.6392 8.89333 53.6992 8.27333 53.7525 7.66C53.8058 7.04667 53.8525 6.45333 53.8925 5.88C53.9458 5.29333 53.9858 4.78 54.0125 4.34ZM61.5766 15C60.8299 15 60.2966 14.8533 59.9766 14.56C59.6566 14.2667 59.4966 13.8467 59.4966 13.3C59.4966 13.0333 59.5166 12.58 59.5566 11.94C59.5966 11.2867 59.6499 10.5467 59.7166 9.72C59.7832 8.89333 59.8499 8.02 59.9166 7.1C59.9832 6.18 60.0499 5.31333 60.1166 4.5C60.1832 3.68667 60.2366 2.97333 60.2766 2.36C60.3166 1.74667 60.3366 1.32667 60.3366 1.1C60.3366 0.899999 60.4432 0.799999 60.6566 0.799999H67.6966C67.7766 0.799999 67.8499 0.819999 67.9166 0.86C67.9832 0.899999 68.0166 0.973332 68.0166 1.08L67.9366 2.26C67.9099 2.66 67.7966 2.98667 67.5966 3.24C67.4099 3.48 67.0166 3.6 66.4166 3.6H63.6566L63.4566 6.42H66.2966C66.3766 6.42 66.4499 6.44 66.5166 6.48C66.5832 6.52 66.6166 6.59333 66.6166 6.7L66.5366 7.88C66.5099 8.28 66.3966 8.60667 66.1966 8.86C66.0099 9.1 65.6166 9.22 65.0166 9.22H63.2766L63.0566 12.2H67.4566C67.5366 12.2 67.6099 12.2267 67.6766 12.28C67.7432 12.32 67.7766 12.3867 67.7766 12.48L67.6966 13.66C67.6699 14.06 67.5566 14.3867 67.3566 14.64C67.1699 14.88 66.7766 15 66.1766 15H61.5766ZM71.5961 15C70.8494 15 70.3161 14.8533 69.9961 14.56C69.6761 14.2667 69.5161 13.8467 69.5161 13.3C69.5161 13.0333 69.5361 12.58 69.5761 11.94C69.6161 11.2867 69.6694 10.5467 69.7361 9.72C69.8028 8.89333 69.8694 8.02 69.9361 7.1C70.0028 6.18 70.0694 5.31333 70.1361 4.5C70.2028 3.68667 70.2561 2.97333 70.2961 2.36C70.3361 1.74667 70.3561 1.32667 70.3561 1.1C70.3561 0.899999 70.4628 0.799999 70.6761 0.799999H77.7161C77.7961 0.799999 77.8694 0.819999 77.9361 0.86C78.0028 0.899999 78.0361 0.973332 78.0361 1.08L77.9561 2.26C77.9294 2.66 77.8161 2.98667 77.6161 3.24C77.4294 3.48 77.0361 3.6 76.4361 3.6H73.6761L73.4761 6.42H76.3161C76.3961 6.42 76.4694 6.44 76.5361 6.48C76.6028 6.52 76.6361 6.59333 76.6361 6.7L76.5561 7.88C76.5294 8.28 76.4161 8.60667 76.2161 8.86C76.0294 9.1 75.6361 9.22 75.0361 9.22H73.2961L73.0761 12.2H77.4761C77.5561 12.2 77.6294 12.2267 77.6961 12.28C77.7628 12.32 77.7961 12.3867 77.7961 12.48L77.7161 13.66C77.6894 14.06 77.5761 14.3867 77.3761 14.64C77.1894 14.88 76.7961 15 76.1961 15H71.5961Z" fill="#373737"/>
</svg>
