<svg width="24" height="24" viewBox="0 0 24 24" fill="none" xmlns="http://www.w3.org/2000/svg">
<path d="M8.47666 4.03248L9.37416 3.74582C10.2142 3.47748 11.1125 3.91165 11.4725 4.75998L12.1892 6.44998C12.5017 7.18582 12.3283 8.05165 11.7608 8.58998L10.1833 10.0883C10.2805 10.985 10.5817 11.8675 11.0867 12.7358C11.5669 13.5757 12.2104 14.311 12.9792 14.8983L14.8758 14.265C15.5942 14.0258 16.3767 14.3017 16.8175 14.9492L17.8442 16.4575C18.3575 17.2108 18.265 18.2492 17.6292 18.8875L16.9475 19.5717C16.2692 20.2525 15.3008 20.5 14.4042 20.22C12.2886 19.56 10.3433 17.6008 8.56833 14.3425C6.7911 11.0786 6.16388 8.30971 6.68666 6.03582C6.90666 5.07915 7.58833 4.31665 8.47833 4.03248" fill="#777C89"/>
</svg>
