<svg width="24" height="24" viewBox="0 0 24 24" fill="none" xmlns="http://www.w3.org/2000/svg">
<path d="M18.5 9.497C19.9587 9.497 21.3576 10.0765 22.3891 11.1079C23.4205 12.1394 24 13.5383 24 14.997C24 16.4557 23.4205 17.8546 22.3891 18.8861C21.3576 19.9175 19.9587 20.497 18.5 20.497C17.0413 20.497 15.6424 19.9175 14.6109 18.8861C13.5795 17.8546 13 16.4557 13 14.997C13 13.5383 13.5795 12.1394 14.6109 11.1079C15.6424 10.0765 17.0413 9.497 18.5 9.497ZM18.5 11.497L18.41 11.505C18.3101 11.5233 18.2181 11.5715 18.1463 11.6433C18.0745 11.7151 18.0263 11.8071 18.008 11.907L18 11.997V14.497H15.498L15.408 14.506C15.3081 14.5243 15.2161 14.5725 15.1443 14.6443C15.0725 14.7161 15.0243 14.8081 15.006 14.908L14.998 14.998L15.006 15.088C15.0243 15.1879 15.0725 15.2799 15.1443 15.3517C15.2161 15.4235 15.3081 15.4717 15.408 15.49L15.498 15.498H18V18.001L18.008 18.091C18.0263 18.1909 18.0745 18.2829 18.1463 18.3547C18.2181 18.4265 18.3101 18.4747 18.41 18.493L18.5 18.501L18.59 18.493C18.6899 18.4747 18.7819 18.4265 18.8537 18.3547C18.9255 18.2829 18.9737 18.1909 18.992 18.091L19 18.001V15.497H21.504L21.594 15.49C21.6939 15.4717 21.7859 15.4235 21.8577 15.3517C21.9295 15.2799 21.9777 15.1879 21.996 15.088L22.004 14.998L21.996 14.908C21.9777 14.808 21.9293 14.7159 21.8573 14.6441C21.7853 14.5722 21.6931 14.5241 21.593 14.506L21.503 14.498H19V11.998L18.992 11.908C18.9739 11.8079 18.9258 11.7157 18.8539 11.6437C18.7821 11.5717 18.69 11.5233 18.59 11.505L18.5 11.497ZM14.925 0.000999928C15.317 0.000968491 15.7023 0.103375 16.0426 0.298073C16.3829 0.49277 16.6664 0.773002 16.865 1.111L17.679 2.498H19.75C20.6118 2.498 21.4383 2.84027 22.0477 3.44955C22.6572 4.05883 22.9997 4.88522 23 5.747V10.307C21.7909 9.14386 20.1778 8.49503 18.5 8.497C18.0833 8.497 17.6773 8.535 17.282 8.611C17.0393 7.86047 16.6036 7.18691 16.0185 6.65781C15.4335 6.12871 14.7197 5.76265 13.9486 5.5963C13.1775 5.42995 12.3763 5.46916 11.6252 5.71C10.874 5.95084 10.1994 6.38485 9.66878 6.96855C9.13821 7.55224 8.77034 8.26513 8.60205 9.03577C8.43375 9.80641 8.47094 10.6078 8.70988 11.3595C8.94882 12.1112 9.38112 12.787 9.96348 13.319C10.5458 13.8511 11.2578 14.2208 12.028 14.391C11.8929 15.8322 12.2427 17.2772 13.022 18.497H6.25C5.38805 18.497 4.5614 18.1546 3.9519 17.5451C3.34241 16.9356 3 16.109 3 15.247V5.747C3 4.88505 3.34241 4.0584 3.9519 3.4489C4.5614 2.83941 5.38805 2.497 6.25 2.497H8.33L9.205 1.073C9.40619 0.74522 9.68804 0.474482 10.0236 0.286634C10.3592 0.0987872 10.7374 0.000101732 11.122 0L14.925 0.000999928ZM13 6.997C13.6318 6.99698 14.2474 7.19641 14.7592 7.56685C15.2709 7.93729 15.6527 8.45984 15.85 9.06C15.0301 9.42708 14.295 9.95961 13.6906 10.6242C13.0863 11.2888 12.6258 12.0711 12.338 12.922C11.6202 12.7573 10.9881 12.3344 10.562 11.7337C10.136 11.1331 9.9457 10.3967 10.0275 9.66481C10.1093 8.93295 10.4574 8.25673 11.0055 7.76495C11.5537 7.27317 12.2636 7.00019 13 6.998" fill="#6B6B6B"/>
</svg>
