<svg width="21" height="20" viewBox="0 0 21 20" fill="none" xmlns="http://www.w3.org/2000/svg">
<g clip-path="url(#clip0_729_41)">
<path d="M2.99991 6.87499C2.99982 6.14983 3.17999 5.43602 3.5242 4.79776C3.86841 4.1595 4.36588 3.61682 4.97185 3.21851C5.57783 2.8202 6.27331 2.57876 6.99574 2.51591C7.71817 2.45307 8.44489 2.57078 9.11055 2.85846C9.7762 3.14614 10.3599 3.59477 10.8092 4.164C11.2584 4.73323 11.5591 5.40521 11.6843 6.11949C11.8094 6.83377 11.755 7.56795 11.526 8.25601C11.2971 8.94406 10.9006 9.5644 10.3724 10.0612C11.3683 10.5447 12.233 11.2612 12.8931 12.1498C13.5533 13.0385 13.9896 14.0732 14.1649 15.1662C14.1842 15.2879 14.1793 15.4121 14.1506 15.5319C14.1219 15.6516 14.0698 15.7646 13.9975 15.8642C13.9251 15.9639 13.8338 16.0483 13.7288 16.1127C13.6238 16.177 13.5072 16.2201 13.3855 16.2394C13.2639 16.2587 13.1397 16.2538 13.0199 16.2251C12.9001 16.1963 12.7872 16.1443 12.6876 16.0719C12.5879 15.9996 12.5035 15.9083 12.4391 15.8033C12.3748 15.6983 12.3317 15.5816 12.3124 15.46C12.1249 14.2854 11.5248 13.2161 10.6199 12.4441C9.71492 11.6721 8.5644 11.2481 7.37491 11.2481C6.18543 11.2481 5.03491 11.6721 4.12995 12.4441C3.225 13.2161 2.6249 14.2854 2.43741 15.46C2.41804 15.5816 2.3749 15.6983 2.31046 15.8032C2.24602 15.9082 2.16153 15.9994 2.06182 16.0717C1.96212 16.1441 1.84914 16.196 1.72935 16.2247C1.60956 16.2533 1.4853 16.2581 1.36366 16.2387C1.24203 16.2194 1.1254 16.1762 1.02043 16.1118C0.915465 16.0473 0.824221 15.9629 0.751907 15.8631C0.679593 15.7634 0.627627 15.6505 0.598974 15.5307C0.570321 15.4109 0.565543 15.2866 0.584913 15.165C0.759628 14.072 1.19566 13.0374 1.85593 12.149C2.51621 11.2607 3.38121 10.5449 4.37741 10.0625C3.94241 9.65333 3.59579 9.15944 3.35889 8.61126C3.12198 8.06307 2.99982 7.47218 2.99991 6.87499ZM14.2499 4.99999C14.9762 5.0005 15.6867 5.21182 16.2952 5.6083C16.9037 6.00478 17.384 6.56938 17.6778 7.23355C17.9717 7.89772 18.0664 8.63291 17.9505 9.34987C17.8346 10.0668 17.513 10.7347 17.0249 11.2725C17.7862 11.6496 18.4626 12.178 19.0128 12.8253C19.563 13.4727 19.9754 14.2254 20.2249 15.0375C20.2745 15.1951 20.2814 15.363 20.2451 15.5241C20.2088 15.6853 20.1305 15.834 20.0182 15.9551C19.9058 16.0762 19.7634 16.1654 19.6054 16.2137C19.4475 16.262 19.2795 16.2676 19.1187 16.23C18.9578 16.1928 18.8097 16.1138 18.6892 16.001C18.5687 15.8882 18.4801 15.7455 18.4324 15.5875C18.2081 14.8629 17.7997 14.2089 17.2472 13.6893C16.6947 13.1696 16.0169 12.8021 15.2799 12.6225C15.0752 12.5731 14.8931 12.4562 14.7629 12.2906C14.6328 12.1251 14.5621 11.9206 14.5624 11.71V11.27C14.5623 11.0954 14.6109 10.9243 14.7028 10.7759C14.7947 10.6275 14.9261 10.5077 15.0824 10.43C15.4614 10.2422 15.7657 9.93177 15.946 9.54917C16.1262 9.16658 16.1719 8.73427 16.0754 8.32247C15.979 7.91068 15.7462 7.54358 15.4148 7.2808C15.0834 7.01803 14.6729 6.87501 14.2499 6.87499C14.0013 6.87499 13.7628 6.77622 13.587 6.6004C13.4112 6.42459 13.3124 6.18613 13.3124 5.93749C13.3124 5.68885 13.4112 5.45039 13.587 5.27458C13.7628 5.09876 14.0013 4.99999 14.2499 4.99999ZM7.37491 4.37499C7.04199 4.36746 6.71092 4.42652 6.40113 4.5487C6.09135 4.67089 5.8091 4.85373 5.57095 5.08649C5.3328 5.31926 5.14355 5.59726 5.01432 5.90417C4.88509 6.21108 4.81848 6.54072 4.81839 6.87373C4.81831 7.20673 4.88476 7.5364 5.01384 7.84338C5.14291 8.15035 5.33202 8.42845 5.57005 8.66133C5.80808 8.89422 6.09025 9.0772 6.39997 9.19954C6.70969 9.32188 7.04074 9.3811 7.37366 9.37374C8.02687 9.3593 8.64846 9.08971 9.10538 8.62269C9.56229 8.15567 9.81823 7.52834 9.81839 6.87498C9.81856 6.22162 9.56293 5.59415 9.10625 5.1269C8.64956 4.65966 8.02811 4.38976 7.37491 4.37499Z" fill="#47515D"/>
</g>
<defs>
<clipPath id="clip0_729_41">
<rect width="20" height="20" fill="white" transform="translate(0.5)"/>
</clipPath>
</defs>
</svg>
