<svg width="30" height="30" viewBox="0 0 30 30" fill="none" xmlns="http://www.w3.org/2000/svg">
<path d="M28.75 15C28.75 19.1812 26.8838 22.9275 23.9375 25.45C21.4491 27.5838 18.278 28.7547 15 28.75C11.5875 28.75 8.46626 27.5075 6.06251 25.45C4.55194 24.1602 3.33934 22.5578 2.50846 20.7536C1.67758 18.9494 1.24821 16.9863 1.25001 15C1.25001 7.40625 7.40626 1.25 15 1.25C22.5938 1.25 28.75 7.40625 28.75 15ZM20 10.625C20 9.29892 19.4732 8.02715 18.5355 7.08947C17.5979 6.15178 16.3261 5.625 15 5.625C13.6739 5.625 12.4022 6.15178 11.4645 7.08947C10.5268 8.02715 10 9.29892 10 10.625C10 11.9511 10.5268 13.2229 11.4645 14.1605C12.4022 15.0982 13.6739 15.625 15 15.625C16.3261 15.625 17.5979 15.0982 18.5355 14.1605C19.4732 13.2229 20 11.9511 20 10.625ZM23.125 22.7812V22.5C23.125 21.1739 22.5982 19.9021 21.6605 18.9645C20.7229 18.0268 19.4511 17.5 18.125 17.5H11.875C10.5489 17.5 9.27715 18.0268 8.33947 18.9645C7.40179 19.9021 6.87501 21.1739 6.87501 22.5V22.7812C7.13334 23.0504 7.40417 23.3067 7.68751 23.55C9.72308 25.2966 12.3178 26.2546 15 26.25C16.5187 26.2529 18.0222 25.9469 19.419 25.3506C20.8157 24.7543 22.0766 23.8801 23.125 22.7812Z" fill="#757575"/>
</svg>
