<svg width="13" height="13" viewBox="0 0 13 13" fill="none" xmlns="http://www.w3.org/2000/svg">
<path d="M6.05142 1.08337C6.48236 1.08347 6.89562 1.25473 7.20029 1.5595L11.3765 5.73575C11.7229 6.08213 11.9174 6.55189 11.9174 7.04171C11.9174 7.53152 11.7229 8.00128 11.3765 8.34767L8.34754 11.3767C8.00116 11.723 7.5314 11.9175 7.04158 11.9175C6.55177 11.9175 6.08201 11.723 5.73563 11.3767L1.55938 7.20042C1.25461 6.89574 1.08334 6.48248 1.08325 6.05154V3.25004C1.08325 2.6754 1.31153 2.1243 1.71785 1.71798C2.12418 1.31165 2.67528 1.08337 3.24992 1.08337H6.05142ZM4.06242 2.97921C3.78911 2.97912 3.52586 3.08234 3.32545 3.26818C3.12505 3.45403 3.00229 3.70875 2.98179 3.98129L2.97909 4.06254C2.97909 4.2768 3.04262 4.48625 3.16166 4.66441C3.2807 4.84256 3.44989 4.98142 3.64784 5.06341C3.8458 5.1454 4.06362 5.16686 4.27377 5.12506C4.48391 5.08326 4.67694 4.98008 4.82845 4.82857C4.97996 4.67707 5.08314 4.48403 5.12494 4.27389C5.16674 4.06374 5.14528 3.84592 5.06329 3.64797C4.98129 3.45001 4.84244 3.28082 4.66429 3.16178C4.48613 3.04274 4.27668 2.97921 4.06242 2.97921Z" fill="#47515D"/>
</svg>
