<svg width="55" height="56" viewBox="0 0 55 56" fill="none" xmlns="http://www.w3.org/2000/svg">
<path d="M16.0418 16.5416C16.0418 13.5027 17.249 10.5882 19.3979 8.43938C21.5468 6.29053 24.4612 5.08331 27.5002 5.08331C30.5391 5.08331 33.4536 6.29053 35.6024 8.43938C37.7513 10.5882 38.9585 13.5027 38.9585 16.5416C38.9585 19.5806 37.7513 22.4951 35.6024 24.6439C33.4536 26.7928 30.5391 28 27.5002 28C24.4612 28 21.5468 26.7928 19.3979 24.6439C17.249 22.4951 16.0418 19.5806 16.0418 16.5416ZM8.021 44.0416C8.021 41.0027 9.22821 38.0882 11.3771 35.9394C13.5259 33.7905 16.4404 32.5833 19.4793 32.5833H35.521C37.0257 32.5833 38.5157 32.8797 39.9059 33.4555C41.2961 34.0314 42.5593 34.8754 43.6233 35.9394C44.6873 37.0034 45.5313 38.2665 46.1071 39.6567C46.6829 41.0469 46.9793 42.5369 46.9793 44.0416V48.625H8.021V44.0416Z" fill="#6B6B6B"/>
</svg>
