<svg width="15" height="15" viewBox="0 0 15 15" fill="none" xmlns="http://www.w3.org/2000/svg">
<path d="M13.5625 8.34375L12.9375 8.96875L11.6563 7.6875L12.2813 7.0625C12.3455 6.99952 12.4319 6.96424 12.5219 6.96424C12.6119 6.96424 12.6982 6.99952 12.7625 7.0625L13.5625 7.8625C13.6938 7.99375 13.6938 8.2125 13.5625 8.34375ZM7.5 11.8375L11.2875 8.05L12.5688 9.33125L8.7875 13.125H7.5V11.8375ZM7.5 8.75C4.7375 8.75 2.5 9.86875 2.5 11.25V12.5H6.25V11.3188L8.75 8.81875C8.3375 8.76875 7.91875 8.75 7.5 8.75ZM7.5 2.5C6.83696 2.5 6.20107 2.76339 5.73223 3.23223C5.26339 3.70107 5 4.33696 5 5C5 5.66304 5.26339 6.29893 5.73223 6.76777C6.20107 7.23661 6.83696 7.5 7.5 7.5C8.16304 7.5 8.79893 7.23661 9.26777 6.76777C9.73661 6.29893 10 5.66304 10 5C10 4.33696 9.73661 3.70107 9.26777 3.23223C8.79893 2.76339 8.16304 2.5 7.5 2.5Z" fill="#47515D"/>
</svg>
